name analog
datacolumns 19
datarows 27
range 0.8250000000000001 0.838
endheader
time	ground_force_vx	ground_force_vy	ground_force_vz	ground_force_px	ground_force_py	ground_force_pz	l_ground_force_vx	l_ground_force_vy	l_ground_force_vz	l_ground_force_px	l_ground_force_py	l_ground_force_pz	ground_torque_x	ground_torque_y	ground_torque_z	l_ground_torque_x	l_ground_torque_y	l_ground_torque_z
0.8250000000000001	-0.0	-0.0	-0.0	-12.043418884277344	68.01062774658203	-305.8702087402344	-9.64318561553955	-98.8875732421875	-522.9902954101562	-0.0	-0.0	-0.0	-0.0	-0.0	-0.0	136042.9375	58230.73828125	-16493.322265625
0.8255	-0.0	-0.0	-0.0	-10.156982421875	65.04569244384766	-291.9510192871094	-7.901795864105225	-96.87586975097656	-505.3399963378906	-0.0	-0.0	-0.0	-0.0	-0.0	-0.0	131745.765625	55004.63671875	-15764.3466796875
0.8260000000000001	-0.0	-0.0	-0.0	-8.10521125793457	62.79813766479492	-278.5564880371094	-6.196753025054932	-95.2732162475586	-489.2291259765625	-0.0	-0.0	-0.0	-0.0	-0.0	-0.0	127567.46875	52223.12109375	-14847.583984375
0.8265	-0.0	-0.0	-0.0	-6.327510356903076	60.30270385742188	-271.2896423339844	-4.669348239898682	-93.70286560058594	-473.56976318359375	-0.0	-0.0	-0.0	-0.0	-0.0	-0.0	123611.90625	49423.65234375	-13917.9404296875
0.8270000000000001	-0.0	-0.0	-0.0	-4.798169136047363	58.31647872924805	-257.1910095214844	-2.451760053634644	-92.08112335205078	-459.1343994140625	-0.0	-0.0	-0.0	-0.0	-0.0	-0.0	119599.1953125	46829.92578125	-12913.943359375
0.8275	-0.0	-0.0	-0.0	-4.110047817230225	55.84025573730469	-254.76914978027344	-0.9246715903282166	-89.81678771972656	-445.0425109863281	-0.0	-0.0	-0.0	-0.0	-0.0	-0.0	116328.0234375	44060.5546875	-11990.6396484375
0.8280000000000001	-0.0	-0.0	-0.0	-2.7971651554107666	54.1912841796875	-247.4538726806641	1.0139614343643188	-87.70343017578125	-433.7953186035156	-0.0	-0.0	-0.0	-0.0	-0.0	-0.0	112987.59375	41480.84765625	-10904.0068359375
0.8285	-0.0	-0.0	-0.0	-2.3898096084594727	52.3835334777832	-240.11253356933597	2.781638860702514	-85.90553283691406	-422.6733703613281	-0.0	-0.0	-0.0	-0.0	-0.0	-0.0	110249.2265625	39091.203125	-9995.4873046875
0.8290000000000001	-0.0	-0.0	-0.0	-0.5227512121200562	50.37118148803711	-234.46194458007807	5.240221977233887	-84.03218078613281	-413.2718200683594	-0.0	-0.0	-0.0	-0.0	-0.0	-0.0	107781.234375	37047.8203125	-8766.408203125
0.8295	-0.0	-0.0	-0.0	0.6431320309638977	50.10371398925781	-227.7025604248047	7.724087715148926	-81.27462005615234	-403.9930419921875	-0.0	-0.0	-0.0	-0.0	-0.0	-0.0	105759.8046875	34980.77734375	-7696.046875
0.8300000000000001	-0.0	-0.0	-0.0	2.1101369857788086	49.81772232055664	-222.45440673828125	9.091992378234863	-79.60430908203125	-396.98541259765625	-0.0	-0.0	-0.0	-0.0	-0.0	-0.0	104346.8984375	32856.5703125	-6654.34326171875
0.8305	-0.0	-0.0	-0.0	3.04545259475708	49.92530822753906	-220.9932861328125	10.581295013427734	-77.45196533203125	-393.79437255859375	-0.0	-0.0	-0.0	-0.0	-0.0	-0.0	103442.734375	30852.205078125	-5896.69873046875
0.8310000000000001	-0.0	-0.0	-0.0	4.728157043457031	50.19873809814453	-219.9827117919922	11.917953491210938	-75.78001403808594	-389.9298706054688	-0.0	-0.0	-0.0	-0.0	-0.0	-0.0	102705.7265625	29146.1015625	-5015.779296875
0.8315	-0.0	-0.0	-0.0	6.149450302124023	50.37688827514648	-218.4981231689453	13.24843406677246	-74.53742218017578	-387.6784362792969	-0.0	-0.0	-0.0	-0.0	-0.0	-0.0	102881.2890625	27391.740234375	-4235.13525390625
0.8320000000000001	-0.0	-0.0	-0.0	6.743768692016602	50.75743103027344	-218.1934814453125	15.080833435058594	-73.02995300292969	-386.8599853515625	-0.0	-0.0	-0.0	-0.0	-0.0	-0.0	102981.9375	25988.48046875	-3328.167236328125
0.8325	-0.0	-0.0	-0.0	5.959095478057861	51.36909866333008	-217.9120178222656	15.897332191467283	-71.90587615966797	-386.6296081542969	-0.0	-0.0	-0.0	-0.0	-0.0	-0.0	103149.25	24645.4453125	-2560.083251953125
0.833	-0.0	-0.0	-0.0	3.645698070526123	52.81260299682617	-220.21893310546875	16.530195236206055	-71.4223861694336	-390.3751220703125	-0.0	-0.0	-0.0	-0.0	-0.0	-0.0	104326.8515625	23564.36328125	-2106.51513671875
0.8335	-0.0	-0.0	-0.0	1.2608070373535156	52.32547378540039	-219.86676025390625	16.890817642211914	-70.31593322753906	-393.191650390625	-0.0	-0.0	-0.0	-0.0	-0.0	-0.0	105579.0234375	22541.94921875	-1512.733154296875
0.834	-0.0	-0.0	-0.0	-0.0117889652028679	52.65251541137695	-216.9691619873047	16.967464447021484	-69.65630340576172	-397.5444641113281	-0.0	-0.0	-0.0	-0.0	-0.0	-0.0	107270.8671875	22078.12109375	-1152.61474609375
0.8345	-0.0	-0.0	-0.0	0.0833524689078331	53.10416030883789	-217.4892578125	17.091732025146484	-68.8615951538086	-403.2933349609375	-0.0	-0.0	-0.0	-0.0	-0.0	-0.0	108705.1953125	21690.955078125	-742.9970703125
0.835	-0.0	-0.0	-0.0	0.118318535387516	53.55574417114258	-217.58187866210935	16.547941207885742	-68.20182800292969	-405.4341735839844	-0.0	-0.0	-0.0	-0.0	-0.0	-0.0	110104.9453125	21160.955078125	-604.7073974609375
0.8355	-0.0	-0.0	-0.0	1.2002415657043457	53.41223907470703	-218.54965209960935	15.0750150680542	-66.48884582519531	-408.7878723144531	-0.0	-0.0	-0.0	-0.0	-0.0	-0.0	110597.9765625	20905.75390625	-544.010986328125
0.836	-0.0	-0.0	-0.0	2.169802188873291	54.18553924560547	-216.47653198242188	14.365365028381348	-65.4175796508789	-406.9742126464844	-0.0	-0.0	-0.0	-0.0	-0.0	-0.0	111092.7890625	20595.349609375	-653.2073974609375
0.8365	-0.0	-0.0	-0.0	2.799807071685791	53.722801208496094	-215.3945159912109	13.626983642578123	-64.65719604492188	-405.6237182617188	-0.0	-0.0	-0.0	-0.0	-0.0	-0.0	110353.6953125	19940.80078125	-694.7688598632812
0.837	-0.0	-0.0	-0.0	3.7241289615631104	52.90374755859375	-210.73602294921875	12.95748519897461	-63.39222717285156	-400.9954223632813	-0.0	-0.0	-0.0	-0.0	-0.0	-0.0	109511.7421875	19000.041015625	-507.3554382324219
0.8375	-0.0	-0.0	-0.0	5.363914012908936	50.98258972167969	-205.85922241210935	14.305135726928713	-62.06189727783203	-393.79833984375	-0.0	-0.0	-0.0	-0.0	-0.0	-0.0	107539.921875	17855.001953125	5.795737266540527
0.838	-0.0	-0.0	-0.0	6.618393421173096	50.40300750732422	-199.8332672119141	16.384809494018555	-61.084922790527344	-386.79339599609375	-0.0	-0.0	-0.0	-0.0	-0.0	-0.0	105834.796875	16536.240234375	728.8146362304688
